<svg width="120" height="38" viewBox="0 0 120 38" fill="none" xmlns="http://www.w3.org/2000/svg">
<path d="M11.9093 5.60831L7.79253 15.3367H16.1732L11.9093 5.60831ZM7.00837 17.3216C6.22422 19.135 4.65591 22.6391 3.35716 27.6136C2.89157 27.5401 2.49949 27.3931 1.73984 27.3931C0.980192 27.3931 0.514601 27.5401 0 27.6136C3.50419 19.9926 9.31182 7.17661 12.1054 0.0947266C12.4239 0.143736 12.669 0.217251 13.0856 0.217251C13.4286 0.217251 13.6492 0.168241 13.9432 0.0947266C16.9573 8.35284 25.6565 27.4666 25.73 27.6136C25.0684 27.4911 24.3823 27.3931 23.4021 27.3931C22.3729 27.3931 21.6377 27.5156 20.8781 27.6136C19.5058 22.9087 17.8885 19.478 16.9083 17.3216H7.00837Z" fill="#333"/>
<path d="M42.2465 16.4148C42.2465 15.116 42.2465 9.89652 37.5416 9.89652C34.1109 9.89652 32.4691 12.494 32.1015 16.4148H42.2465ZM32.077 18.0566C32.077 19.1593 32.077 21.3893 33.1307 23.2026C34.9441 26.1677 37.4926 26.2657 38.6443 26.2657C42.4916 26.2657 44.3049 23.9133 44.893 23.0801L45.3586 23.1781C45.1136 24.2808 45.1136 24.918 45.0891 25.5306C43.3492 27.1724 40.9723 28.1036 37.7866 28.1036C31.8075 28.1036 28.1562 24.3298 28.1562 18.2772C28.1562 12.8616 31.1458 8.30371 37.5906 8.30371C46.3633 8.30371 46.2408 15.9247 46.1918 18.0566H32.077Z" fill="#333"/>
<path d="M61.164 12.8618C61.0169 12.2737 60.7719 11.2935 59.6447 10.5093C58.8115 9.92121 57.7333 9.84769 57.0962 9.84769C54.6947 9.84769 53.445 11.0974 53.445 12.7883C53.445 15.0672 55.7729 15.9004 57.1452 16.2434C60.6494 17.1501 63.4674 17.8853 63.4674 21.8305C63.4674 24.8201 61.3845 28.1528 55.9199 28.1528C52.7343 28.1528 50.5289 26.805 50.1123 26.511C50.6269 25.5553 50.9455 23.8889 51.019 23.3743L51.4846 23.2518C51.7541 23.9134 52.1462 24.9917 53.6165 25.8493C54.5967 26.4374 55.6259 26.5845 56.4836 26.5845C58.542 26.5845 60.4533 25.6043 60.4533 23.3498C60.4533 21.1199 59.1056 20.6788 54.9888 19.3311C53.2979 18.7674 50.5044 17.5667 50.5044 14.1115C50.5044 11.8816 51.8766 8.25488 57.3167 8.25488C60.0367 8.25488 61.6051 9.08805 62.5117 9.55364C62.1197 10.5828 61.8501 11.514 61.7276 12.8618H61.164Z" fill="#333"/>
<path d="M71.4314 18.1058C71.4314 23.5704 73.8329 26.5845 77.4351 26.5845C81.2088 26.5845 83.6838 23.3253 83.6838 18.1303C83.6838 15.0672 82.7281 9.84769 77.6311 9.84769C71.4314 9.84769 71.4314 16.9051 71.4314 18.1058ZM87.7026 17.9833C87.7026 24.232 83.3897 28.1528 77.4106 28.1528C73.2447 28.1528 67.4126 26.2659 67.4126 18.2038C67.4126 12.0776 71.5049 8.25488 77.4106 8.25488C84.86 8.27939 87.7026 13.1803 87.7026 17.9833Z" fill="#333"/>
<path d="M97.872 12.2493C97.0878 13.2294 96.2547 14.6507 96.2547 18.547C96.2547 22.0022 97.0388 23.3009 97.872 24.2811C98.8767 25.5064 100.224 26.217 102.038 26.217C107.649 26.217 107.649 19.5762 107.649 18.3019C107.649 12.3718 104.807 10.2154 102.258 10.2154C100.151 10.1909 98.7787 11.0975 97.872 12.2493ZM102.748 28.2019C99.0482 28.2019 96.9653 26.168 96.3282 24.5507C96.3282 30.7259 96.2792 34.3036 96.5242 37.9058C95.9361 37.7588 95.4215 37.6852 94.4658 37.6852C93.4856 37.6852 92.971 37.7588 92.3584 37.9058C92.677 32.8088 92.7995 27.6383 92.7995 22.5413C92.7995 18.9636 92.726 14.1361 92.6034 8.42651C93.1426 8.54903 93.7797 8.64705 94.5393 8.64705C95.25 8.64705 95.9116 8.52453 96.4752 8.42651C96.3282 10.5829 96.3282 11.171 96.3282 12.0042C96.9653 10.975 98.6561 8.23047 103.018 8.23047C106.939 8.23047 111.742 11.0975 111.742 18.1059C111.717 24.3056 107.894 28.2019 102.748 28.2019Z" fill="#333"/>
<path d="M43.153 3.40283H32.2974V4.62807H43.153V3.40283Z" fill="#333"/>
<path d="M116.937 24.1341C116.937 24.5262 116.937 24.8693 116.937 25.2123C117.255 25.2123 117.991 25.2123 117.991 24.6487C117.991 24.1341 117.427 24.1341 116.937 24.1341ZM118.824 26.8296C118.726 26.8296 118.652 26.8051 118.53 26.8051C118.432 26.8051 118.334 26.8296 118.162 26.8296C117.672 26.119 117.28 25.7269 117.01 25.4084H116.912C116.912 25.8494 116.912 26.1925 116.961 26.8296C116.839 26.8296 116.79 26.8051 116.643 26.8051C116.496 26.8051 116.447 26.8296 116.373 26.8296C116.398 26.5111 116.422 26.168 116.422 25.3103C116.422 24.5752 116.398 24.2321 116.398 23.9136C116.618 23.9136 116.765 23.9136 117.108 23.9136C117.819 23.9136 118.554 23.9136 118.554 24.5997C118.554 25.2123 117.893 25.3103 117.599 25.3348C117.795 25.6044 118.677 26.5846 118.848 26.7806L118.824 26.8296ZM117.427 23.3255C116.251 23.3255 115.344 24.2566 115.344 25.4329C115.344 26.6336 116.226 27.5403 117.427 27.5403C118.628 27.5403 119.51 26.6336 119.51 25.4329C119.534 24.2811 118.677 23.3255 117.427 23.3255ZM117.427 22.8599C118.873 22.8599 120 24.0116 120 25.4329C120 26.8787 118.848 28.0059 117.427 28.0059C116.006 28.0059 114.854 26.8787 114.854 25.4329C114.879 23.9871 116.03 22.8599 117.427 22.8599Z" fill="#333"/>
</svg>